<svg width="100%" viewBox="0 0 680 420" xmlns="http://www.w3.org/2000/svg" style="font-family: system-ui, -apple-system, sans-serif; background: #fff;">
<defs><marker id="arrow" viewBox="0 0 10 10" refX="8" refY="5" markerWidth="6" markerHeight="6" orient="auto-start-reverse"><path d="M2 1L8 5L2 9" fill="none" stroke="context-stroke" stroke-width="1.5" stroke-linecap="round" stroke-linejoin="round"/></marker></defs>

<text x="340" y="36" text-anchor="middle" font-size="16" font-weight="500" fill="#2C2C2A">The hidden cost of dead indexes</text>

<!-- LEFT: Lean table -->
<rect x="40" y="70" width="280" height="150" rx="14" fill="#E1F5EE" stroke="#0F6E56" stroke-width="0.5"/>
<text x="180" y="100" text-anchor="middle" font-size="14" font-weight="500" fill="#085041">Lean table</text>
<text x="180" y="120" text-anchor="middle" font-size="12" fill="#0F6E56">2 active indexes</text>

<rect x="60" y="140" width="110" height="36" rx="6" fill="#9FE1CB" stroke="#0F6E56" stroke-width="0.5"/>
<text x="115" y="162" text-anchor="middle" dominant-baseline="central" font-size="12" fill="#085041">users_pkey</text>

<rect x="190" y="140" width="110" height="36" rx="6" fill="#9FE1CB" stroke="#0F6E56" stroke-width="0.5"/>
<text x="245" y="162" text-anchor="middle" dominant-baseline="central" font-size="12" fill="#085041">email_idx</text>

<text x="180" y="252" text-anchor="middle" font-size="12" fill="#5F5E5A">INSERT</text>
<line x1="180" y1="260" x2="180" y2="290" stroke="#1D9E75" stroke-width="1.5" marker-end="url(#arrow)"/>

<rect x="100" y="296" width="160" height="44" rx="8" fill="#EAF3DE" stroke="#3B6D11" stroke-width="0.5"/>
<text x="180" y="318" text-anchor="middle" dominant-baseline="central" font-size="14" font-weight="500" fill="#27500A">~2ms writes</text>

<!-- RIGHT: Bloated table -->
<rect x="360" y="70" width="280" height="150" rx="14" fill="#FAECE7" stroke="#993C1D" stroke-width="0.5"/>
<text x="500" y="100" text-anchor="middle" font-size="14" font-weight="500" fill="#712B13">Bloated table</text>
<text x="500" y="120" text-anchor="middle" font-size="12" fill="#993C1D">2 active + 5 dead indexes</text>

<rect x="380" y="136" width="72" height="30" rx="5" fill="#F5C4B3" stroke="#993C1D" stroke-width="0.5"/>
<text x="416" y="155" text-anchor="middle" dominant-baseline="central" font-size="12" fill="#712B13">dead</text>
<rect x="460" y="136" width="72" height="30" rx="5" fill="#F5C4B3" stroke="#993C1D" stroke-width="0.5"/>
<text x="496" y="155" text-anchor="middle" dominant-baseline="central" font-size="12" fill="#712B13">dead</text>
<rect x="540" y="136" width="72" height="30" rx="5" fill="#F5C4B3" stroke="#993C1D" stroke-width="0.5"/>
<text x="576" y="155" text-anchor="middle" dominant-baseline="central" font-size="12" fill="#712B13">dead</text>
<rect x="380" y="174" width="72" height="30" rx="5" fill="#F1EFE8" stroke="#5F5E5A" stroke-width="0.5"/>
<text x="416" y="193" text-anchor="middle" dominant-baseline="central" font-size="12" fill="#444441">dead</text>
<rect x="460" y="174" width="72" height="30" rx="5" fill="#F1EFE8" stroke="#5F5E5A" stroke-width="0.5"/>
<text x="496" y="193" text-anchor="middle" dominant-baseline="central" font-size="12" fill="#444441">dead</text>

<text x="500" y="252" text-anchor="middle" font-size="12" fill="#5F5E5A">INSERT</text>
<line x1="500" y1="260" x2="500" y2="290" stroke="#D85A30" stroke-width="1.5" marker-end="url(#arrow)"/>

<rect x="420" y="296" width="160" height="44" rx="8" fill="#FCEBEB" stroke="#A32D2D" stroke-width="0.5"/>
<text x="500" y="318" text-anchor="middle" dominant-baseline="central" font-size="14" font-weight="500" fill="#791F1F">~7ms writes</text>

<!-- Bottom callout -->
<rect x="140" y="370" width="400" height="40" rx="8" fill="#EEEDFE" stroke="#534AB7" stroke-width="0.5"/>
<text x="340" y="394" text-anchor="middle" dominant-baseline="central" font-size="14" font-weight="500" fill="#3C3489">Every dead index taxes every write</text>
</svg>
